# xmcd
#
# Track frame offsets: 
#        150
#        25273
#        52015
#        88751
#        117247
#        146406
#        166539
#        198356
#        230749
#        257052
#        284369
#
# Disc length: 4658 seconds
#
# Revision: 0
# Processed by: cddbd v1.5.2PL0 Copyright (c) Steve Scherf et al.
# Submitted via: ExactAudioCopy v0.99pb5
#
DISCID=9712300b
DTITLE=The Todd Wolfe Band - Live
DYEAR=2010
DGENRE=Blues
TTITLE0=Ready For Love
TTITLE1=Crowded In My Soul
TTITLE2=Cold Black Night
TTITLE3=Beg Forgiveness
TTITLE4=Gates Of Heaven
TTITLE5=Roll Over
TTITLE6=Black Hearted Woman
TTITLE7=Silver Blue
TTITLE8=Change Will Come
TTITLE9=Love Gone Bad
TTITLE10=Shame
EXTD=
EXTT0=
EXTT1=
EXTT2=
EXTT3=
EXTT4=
EXTT5=
EXTT6=
EXTT7=
EXTT8=
EXTT9=
EXTT10=
PLAYORDER=
